<?xml version="1.0" standalone="no"?>
<!DOCTYPE svg PUBLIC "-//W3C//DTD SVG 20010904//EN"
 "http://www.w3.org/TR/2001/REC-SVG-20010904/DTD/svg10.dtd">
<svg version="1.0" xmlns="http://www.w3.org/2000/svg"
 width="512.000000pt" height="512.000000pt" viewBox="0 0 512.000000 512.000000"
 preserveAspectRatio="xMidYMid meet">

<g transform="translate(0.000000,512.000000) scale(0.100000,-0.100000)"
fill="#000000" stroke="none">
<path d="M1925 4654 c-503 -53 -932 -249 -1279 -584 -191 -184 -313 -354 -431
-595 -157 -321 -226 -647 -212 -995 17 -395 136 -762 356 -1091 l78 -116 -199
-279 c-217 -304 -238 -338 -238 -384 0 -50 35 -107 80 -130 39 -20 57 -20
1079 -20 649 0 1078 4 1142 10 225 23 469 87 648 171 l84 39 58 -35 c132 -81
313 -144 481 -169 88 -13 217 -16 767 -16 644 0 663 1 701 20 69 35 99 125 64
191 -8 17 -66 101 -128 188 l-113 158 39 59 c86 129 156 303 195 485 25 116
25 380 -1 499 -58 273 -168 486 -350 678 -154 160 -316 268 -518 340 l-101 37
-39 114 c-244 731 -875 1269 -1643 1402 -116 20 -420 33 -520 23z m363 -305
c217 -24 401 -77 597 -173 375 -185 646 -455 831 -831 329 -669 210 -1457
-304 -2016 -233 -253 -586 -453 -932 -527 -183 -40 -278 -43 -1176 -40 l-861
3 153 215 c85 118 161 233 170 256 22 57 7 103 -61 188 -388 479 -504 1114
-314 1701 41 124 135 315 213 432 369 554 1028 864 1684 792z m1994 -1623
c316 -179 515 -499 535 -856 14 -257 -68 -514 -230 -719 -43 -54 -51 -71 -55
-116 -5 -60 -1 -70 79 -182 33 -44 59 -84 59 -88 0 -3 -240 -5 -532 -3 -517 4
-535 5 -616 27 -45 12 -107 33 -138 45 l-55 22 63 49 c84 65 245 222 323 315
100 120 193 264 267 415 154 315 228 656 216 998 -3 75 -2 137 1 137 4 0 41
-20 83 -44z"/>
<path d="M1128 3289 c-43 -22 -78 -81 -78 -129 0 -50 35 -107 80 -130 38 -19
58 -20 570 -20 512 0 532 1 570 20 45 23 80 80 80 130 0 50 -35 107 -80 130
-38 19 -57 20 -572 20 -511 -1 -535 -2 -570 -21z"/>
<path d="M1128 2689 c-43 -22 -78 -81 -78 -129 0 -50 35 -107 80 -130 38 -20
57 -20 970 -20 913 0 932 0 970 20 45 23 80 80 80 130 0 50 -35 107 -80 130
-38 20 -56 20 -972 20 -909 -1 -934 -1 -970 -21z"/>
<path d="M1128 2089 c-43 -22 -78 -81 -78 -129 0 -50 35 -107 80 -130 38 -20
57 -20 970 -20 913 0 932 0 970 20 45 23 80 80 80 130 0 50 -35 107 -80 130
-38 20 -56 20 -972 20 -909 -1 -934 -1 -970 -21z"/>
</g>
</svg>
